<svg width="61" height="61" viewBox="0 0 61 61" fill="none" xmlns="http://www.w3.org/2000/svg">
<path d="M36.291 27.0176H45.666" stroke="#313435" stroke-width="2" stroke-linecap="round" stroke-linejoin="round"/>
<path d="M36.291 34.5176H45.666" stroke="#313435" stroke-width="2" stroke-linecap="round" stroke-linejoin="round"/>
<path d="M51.291 12.0176H10.041C9.00548 12.0176 8.16602 12.857 8.16602 13.8926V47.6426C8.16602 48.6781 9.00548 49.5176 10.041 49.5176H51.291C52.3265 49.5176 53.166 48.6781 53.166 47.6426V13.8926C53.166 12.857 52.3265 12.0176 51.291 12.0176Z" stroke="#313435" stroke-width="2" stroke-linecap="round" stroke-linejoin="round"/>
<path d="M23.166 34.5176C26.2726 34.5176 28.791 31.9992 28.791 28.8926C28.791 25.786 26.2726 23.2676 23.166 23.2676C20.0594 23.2676 17.541 25.786 17.541 28.8926C17.541 31.9992 20.0594 34.5176 23.166 34.5176Z" stroke="#313435" stroke-width="2" stroke-linecap="round" stroke-linejoin="round"/>
<path d="M15.666 40.1426C16.498 36.9082 19.6715 34.5176 23.166 34.5176C26.6605 34.5176 29.8363 36.9059 30.666 40.1426" stroke="#313435" stroke-width="2" stroke-linecap="round" stroke-linejoin="round"/>
</svg>
