<svg width="61" height="61" viewBox="0 0 61 61" fill="none" xmlns="http://www.w3.org/2000/svg">
<path d="M52.6889 25.8597V18.2191C52.6889 17.4827 52.092 16.8857 51.3556 16.8857H7.22786C6.49148 16.8857 5.89453 17.4827 5.89453 18.2191V47.4585C5.89453 48.1949 6.49148 48.7919 7.22786 48.7919H51.3556C52.092 48.7919 52.6889 48.1949 52.6889 47.4585V38.1565" stroke="#313435" stroke-width="2"/>
<rect width="18.8879" height="12.7624" rx="1.33333" transform="matrix(1 0 0 -1 35.6738 38.6899)" stroke="#313435" stroke-width="2"/>
<path d="M50.5619 16.355V13.4342C50.5619 12.6978 49.9649 12.1008 49.2285 12.1008H9.35482C8.61844 12.1008 8.02148 12.6978 8.02148 13.4342V16.355" stroke="#313435" stroke-width="2"/>
<ellipse cx="43.1183" cy="32.3071" rx="3.19053" ry="3.19061" stroke="#313435" stroke-width="2"/>
</svg>
