<svg width="60" height="61" viewBox="0 0 60 61" fill="none" xmlns="http://www.w3.org/2000/svg">
<g clip-path="url(#clip0_6_342)">
<path d="M20.5453 14.0636L19.5703 8.52295" stroke="#0080C8" stroke-width="2" stroke-linecap="round" stroke-linejoin="round"/>
<path d="M13.2875 18.6878L8.67969 15.4604" stroke="#0080C8" stroke-width="2" stroke-linecap="round" stroke-linejoin="round"/>
<path d="M11.4215 27.0903L5.88086 28.0677" stroke="#0080C8" stroke-width="2" stroke-linecap="round" stroke-linejoin="round"/>
<path d="M28.9492 15.9293L32.1742 11.3215" stroke="#0080C8" stroke-width="2" stroke-linecap="round" stroke-linejoin="round"/>
<path d="M22.4999 34.5176C22.6802 31.4078 23.7671 28.4188 25.6265 25.9196C27.4859 23.4203 30.0363 21.5202 32.9631 20.4536C35.8898 19.3871 39.0649 19.2008 42.0963 19.9178C45.1277 20.6348 47.8828 22.2237 50.0217 24.4884C52.1605 26.753 53.5895 29.5944 54.1323 32.6618C54.675 35.7292 54.3077 38.8884 53.0758 41.7495C51.8439 44.6106 49.8012 47.0484 47.1999 48.762C44.5986 50.4757 41.5524 51.3902 38.4374 51.3926H19.6874C18.1913 51.3912 16.7134 51.0642 15.3563 50.4345C13.9992 49.8047 12.7953 48.8871 11.8283 47.7455C10.8613 46.6039 10.1543 45.2656 9.75632 43.8234C9.35834 42.3811 9.27893 40.8696 9.52361 39.3936C9.76828 37.9177 10.3312 36.5126 11.1732 35.2759C12.0153 34.0393 13.1164 33.0007 14.4 32.2322C15.6836 31.4636 17.1191 30.9836 18.6069 30.8254C20.0946 30.6672 21.5989 30.8347 23.0155 31.3161" stroke="#0080C8" stroke-width="2" stroke-linecap="round" stroke-linejoin="round"/>
<path d="M13.9802 32.4902C12.9277 31.2664 12.1509 29.8305 11.7025 28.2799C11.2541 26.7293 11.1447 25.1003 11.3816 23.5037C11.6185 21.907 12.1962 20.38 13.0755 19.0264C13.9548 17.6728 15.115 16.5243 16.4775 15.6588C17.84 14.7933 19.3727 14.2311 20.9717 14.0104C22.5707 13.7897 24.1984 13.9157 25.7444 14.3798C27.2904 14.8439 28.7184 15.6353 29.9314 16.7001C31.1445 17.765 32.1142 19.0784 32.7747 20.5512" stroke="#0080C8" stroke-width="2" stroke-linecap="round" stroke-linejoin="round"/>
</g>
<defs>
<clipPath id="clip0_6_342">
<rect width="60" height="60" fill="white" transform="translate(0 0.767578)"/>
</clipPath>
</defs>
</svg>
