<svg width="119" height="44" viewBox="0 0 119 44" fill="none" xmlns="http://www.w3.org/2000/svg">
<path d="M118.25 0H112.263V44H118.25V0Z" fill="#F6BC25"/>
<path d="M0 33.8614V19.8333H4.24615L8.99845 28.788L8.40793 28.7602L13.0759 19.8333H17.4345V33.8614H13.6945V21.1917L15.0724 22.6056L9.89829 32.3365H7.33936L2.16525 22.5778L3.57126 21.4135V33.8614H0Z" fill="#007CB5"/>
<path d="M28.2882 34.3051C26.7323 34.3051 25.3451 33.991 24.1265 33.3625C22.9268 32.7157 21.9894 31.8285 21.3145 30.7011C20.6396 29.5737 20.3022 28.2891 20.3022 26.8475C20.3022 25.3875 20.6396 24.0936 21.3145 22.9662C21.9894 21.8388 22.9268 20.9608 24.1265 20.3325C25.3451 19.704 26.7323 19.3899 28.2882 19.3899C29.8818 19.3899 31.2784 19.704 32.4783 20.3325C33.678 20.9608 34.6154 21.8388 35.2902 22.9662C35.9651 24.0936 36.3025 25.3782 36.3025 26.8197C36.3025 28.2799 35.9651 29.5737 35.2902 30.7011C34.6154 31.8285 33.678 32.7157 32.4783 33.3625C31.2784 33.991 29.8818 34.3051 28.2882 34.3051ZM28.3165 30.8674C29.0288 30.8674 29.6569 30.7011 30.2004 30.3685C30.7442 30.0172 31.1659 29.5459 31.4658 28.9545C31.7658 28.3446 31.9158 27.6423 31.9158 26.8475C31.9158 26.0527 31.7658 25.3504 31.4658 24.7406C31.1659 24.1307 30.7442 23.6594 30.2004 23.3266C29.6569 22.9755 29.0288 22.7999 28.3165 22.7999C27.604 22.7999 26.9667 22.9755 26.4043 23.3266C25.8606 23.6594 25.4388 24.1307 25.1389 24.7406C24.839 25.3504 24.6889 26.0527 24.6889 26.8475C24.6889 27.6423 24.839 28.3446 25.1389 28.9545C25.4388 29.5459 25.8606 30.0172 26.4043 30.3685C26.9667 30.7011 27.604 30.8674 28.3165 30.8674Z" fill="#007CB5"/>
<path d="M48.9728 33.8614V19.8333H53.2189V33.8614H48.9728ZM39.187 33.8614V19.8333H43.4051V33.8614H39.187ZM41.1554 28.1782V24.8513H51.4474V28.1782H41.1554Z" fill="#007CB5"/>
<path d="M68.9348 29.3427L71.0719 31.8656C70.3594 32.6233 69.4316 33.224 68.288 33.6675C67.1444 34.0926 65.8977 34.3051 64.548 34.3051C62.8609 34.3051 61.3797 33.991 60.105 33.3625C58.849 32.7342 57.8648 31.8656 57.1525 30.7566C56.44 29.629 56.0837 28.3353 56.0837 26.8753C56.0837 25.3966 56.4213 24.0936 57.0962 22.9662C57.7898 21.8388 58.7178 20.9608 59.8801 20.3325C61.0611 19.704 62.3828 19.3899 63.845 19.3899C65.2698 19.3899 66.5352 19.704 67.6412 20.3325C68.7473 20.9424 69.6097 21.7926 70.2283 22.883C70.8657 23.9735 71.1844 25.2395 71.1844 26.6812V26.8475H67.0507V26.4318C67.0507 25.637 66.9195 24.9531 66.657 24.3802C66.3945 23.8072 66.0195 23.3637 65.5321 23.0493C65.0636 22.7167 64.4918 22.5504 63.817 22.5504C63.1421 22.5504 62.542 22.7259 62.0172 23.0771C61.4924 23.4097 61.0798 23.8904 60.7799 24.5187C60.4987 25.1287 60.3581 25.8773 60.3581 26.7644C60.3581 27.707 60.5456 28.5016 60.9206 29.1486C61.2953 29.7955 61.8204 30.2853 62.4952 30.6179C63.1701 30.9321 63.9388 31.0892 64.8011 31.0892C66.4132 31.0892 67.7912 30.507 68.9348 29.3427ZM71.1844 28.0674H58.7271V25.5445H70.7063L71.1844 26.709V28.0674Z" fill="#007CB5"/>
<path d="M77.0263 33.8614V21.3026H81.2444V33.8614H77.0263ZM72.3584 23.1601V19.8333H85.9122V23.1601H72.3584Z" fill="#007CB5"/>
<path d="M101.036 33.8616H97.2119V31.0339L97.015 30.6733V25.3782C97.015 24.454 96.7058 23.7517 96.0872 23.2712C95.4871 22.7721 94.6624 22.5227 93.6125 22.5227C92.8252 22.5227 92.0847 22.6705 91.3911 22.9662C90.7162 23.2434 90.1163 23.6407 89.5913 24.1583L87.5105 21.6632C88.2604 20.9424 89.1789 20.3879 90.2662 19.9997C91.3723 19.5931 92.5533 19.3899 93.8094 19.3899C95.2529 19.3899 96.5089 19.6209 97.5775 20.0829C98.6647 20.5266 99.5084 21.1918 100.108 22.0791C100.727 22.9662 101.036 24.0382 101.036 25.295V33.8616ZM92.5721 34.3051C91.4661 34.3051 90.4913 34.1111 89.6476 33.7229C88.804 33.3163 88.1478 32.7711 87.6793 32.0872C87.2293 31.4034 87.0044 30.5995 87.0044 29.6753C87.0044 28.7142 87.2856 27.8918 87.8479 27.2079C88.429 26.524 89.2446 25.9974 90.2944 25.6276C91.363 25.2581 92.6097 25.0732 94.0343 25.0732H97.3806V27.6515H94.3155C93.397 27.6515 92.6658 27.8178 92.1223 28.1506C91.5785 28.4832 91.3067 28.936 91.3067 29.509C91.3067 30.0265 91.5222 30.4516 91.9535 30.7842C92.3846 31.0986 92.9377 31.2555 93.6125 31.2555C94.2687 31.2555 94.8686 31.117 95.4123 30.8398C95.9558 30.5441 96.3965 30.1559 96.7338 29.6753C97.0901 29.1764 97.2963 28.6219 97.3526 28.0118L98.4773 28.4832C98.4773 29.6477 98.2337 30.6733 97.7462 31.5606C97.2588 32.4292 96.5652 33.1037 95.6653 33.5844C94.7655 34.0648 93.7344 34.3051 92.5721 34.3051Z" fill="#007CB5"/>
</svg>
