<svg width="119" height="44" viewBox="0 0 119 44" fill="none" xmlns="http://www.w3.org/2000/svg">
<path d="M118.249 0H112.262V44H118.249V0Z" fill="#F6BC25"/>
<path d="M0 33.8612V19.833H4.24615L8.99845 28.7878L8.40793 28.76L13.0759 19.833H17.4345V33.8612H13.6945V21.1914L15.0724 22.6054L9.89829 32.3363H7.33936L2.16525 22.5776L3.57126 21.4133V33.8612H0Z" fill="#007CB5"/>
<path d="M28.2887 34.3049C26.7328 34.3049 25.3456 33.9908 24.127 33.3623C22.9272 32.7155 21.9899 31.8282 21.315 30.7008C20.6401 29.5734 20.3027 28.2888 20.3027 26.8473C20.3027 25.3873 20.6401 24.0934 21.315 22.966C21.9899 21.8385 22.9272 20.9606 24.127 20.3323C25.3456 19.7038 26.7328 19.3896 28.2887 19.3896C29.8823 19.3896 31.2788 19.7038 32.4787 20.3323C33.6785 20.9606 34.6158 21.8385 35.2907 22.966C35.9656 24.0934 36.303 25.3779 36.303 26.8195C36.303 28.2797 35.9656 29.5734 35.2907 30.7008C34.6158 31.8282 33.6785 32.7155 32.4787 33.3623C31.2788 33.9908 29.8823 34.3049 28.2887 34.3049ZM28.317 30.8671C29.0293 30.8671 29.6574 30.7008 30.2009 30.3682C30.7447 30.017 31.1664 29.5456 31.4663 28.9542C31.7662 28.3444 31.9163 27.6421 31.9163 26.8473C31.9163 26.0525 31.7662 25.3502 31.4663 24.7403C31.1664 24.1305 30.7447 23.6591 30.2009 23.3263C29.6574 22.9753 29.0293 22.7996 28.317 22.7996C27.6045 22.7996 26.9672 22.9753 26.4048 23.3263C25.861 23.6591 25.4393 24.1305 25.1394 24.7403C24.8395 25.3502 24.6894 26.0525 24.6894 26.8473C24.6894 27.6421 24.8395 28.3444 25.1394 28.9542C25.4393 29.5456 25.861 30.017 26.4048 30.3682C26.9672 30.7008 27.6045 30.8671 28.317 30.8671Z" fill="#007CB5"/>
<path d="M48.9732 33.8612V19.833H53.2194V33.8612H48.9732ZM39.1875 33.8612V19.833H43.4056V33.8612H39.1875ZM41.1558 28.1779V24.8511H51.4479V28.1779H41.1558Z" fill="#007CB5"/>
<path d="M68.9351 29.3424L71.0722 31.8653C70.3597 32.623 69.4318 33.2237 68.2882 33.6673C67.1447 34.0924 65.898 34.3049 64.5482 34.3049C62.8611 34.3049 61.38 33.9908 60.1052 33.3623C58.8492 32.734 57.865 31.8653 57.1527 30.7564C56.4402 29.6288 56.084 28.3351 56.084 26.8751C56.084 25.3964 56.4215 24.0934 57.0964 22.966C57.79 21.8385 58.718 20.9606 59.8803 20.3323C61.0613 19.7038 62.383 19.3896 63.8453 19.3896C65.2701 19.3896 66.5354 19.7038 67.6414 20.3323C68.7476 20.9421 69.6099 21.7923 70.2285 22.8828C70.866 23.9733 71.1846 25.2392 71.1846 26.681V26.8473H67.0509V26.4315C67.0509 25.6367 66.9198 24.9529 66.6573 24.3799C66.3948 23.807 66.0198 23.3634 65.5324 23.0491C65.0639 22.7165 64.4921 22.5502 63.8172 22.5502C63.1423 22.5502 62.5423 22.7256 62.0174 23.0769C61.4926 23.4095 61.08 23.8901 60.7801 24.5184C60.4989 25.1285 60.3584 25.877 60.3584 26.7641C60.3584 27.7068 60.5459 28.5014 60.9208 29.1483C61.2956 29.7953 61.8206 30.2851 62.4955 30.6177C63.1704 30.9318 63.939 31.089 64.8014 31.089C66.4135 31.089 67.7915 30.5067 68.9351 29.3424ZM71.1846 28.0672H58.7274V25.5442H70.7066L71.1846 26.7088V28.0672Z" fill="#007CB5"/>
<path d="M77.0273 33.8612V21.3023H81.2453V33.8612H77.0273ZM72.3594 23.1599V19.833H85.9132V23.1599H72.3594Z" fill="#007CB5"/>
<path d="M101.036 33.8614H97.2114V31.0336L97.0146 30.673V25.3779C97.0146 24.4538 96.7053 23.7514 96.0867 23.271C95.4867 22.7719 94.6619 22.5224 93.6121 22.5224C92.8247 22.5224 92.0842 22.6703 91.3906 22.966C90.7157 23.2432 90.1158 23.6405 89.5908 24.1581L87.51 21.6629C88.2599 20.9421 89.1784 20.3877 90.2657 19.9995C91.3719 19.5929 92.5529 19.3896 93.8089 19.3896C95.2524 19.3896 96.5084 19.6206 97.577 20.0826C98.6642 20.5264 99.5079 21.1916 100.108 22.0789C100.727 22.966 101.036 24.038 101.036 25.2948V33.8614ZM92.5716 34.3049C91.4656 34.3049 90.4908 34.1108 89.6471 33.7226C88.8035 33.316 88.1473 32.7709 87.6788 32.087C87.2288 31.4031 87.0039 30.5992 87.0039 29.675C87.0039 28.7139 87.2851 27.8915 87.8474 27.2077C88.4285 26.5238 89.2441 25.9971 90.2939 25.6274C91.3625 25.2579 92.6092 25.0729 94.0338 25.0729H97.3802V27.6512H94.315C93.3965 27.6512 92.6653 27.8175 92.1218 28.1503C91.578 28.4829 91.3062 28.9358 91.3062 29.5087C91.3062 30.0263 91.5217 30.4514 91.953 30.784C92.3841 31.0983 92.9372 31.2553 93.6121 31.2553C94.2682 31.2553 94.8681 31.1168 95.4118 30.8395C95.9554 30.5438 96.396 30.1557 96.7333 29.675C97.0896 29.1761 97.2958 28.6216 97.3521 28.0116L98.4768 28.4829C98.4768 29.6474 98.2332 30.673 97.7458 31.5603C97.2584 32.4289 96.5648 33.1035 95.6648 33.5841C94.765 34.0646 93.7339 34.3049 92.5716 34.3049Z" fill="#007CB5"/>
</svg>
