<svg width="120" height="120" viewBox="0 0 120 120" fill="none" xmlns="http://www.w3.org/2000/svg">
<g filter="url(#filter0_d_41_661)">
<circle cx="60" cy="58" r="50" fill="url(#paint0_linear_41_661)" shape-rendering="crispEdges"/>
</g>
<path d="M94.1865 55.6744C94.1865 60.1638 93.3023 64.6092 91.5843 68.7568C89.8663 72.9045 87.3482 76.6731 84.1737 79.8476C80.9992 83.022 77.2306 85.5402 73.0829 87.2582C68.9353 88.9762 64.4899 89.8604 60.0005 89.8604C55.5111 89.8604 51.0657 88.9762 46.9181 87.2582C42.7704 85.5402 39.0018 83.022 35.8273 79.8476C32.6528 76.6731 30.1347 72.9045 28.4167 68.7568C26.6987 64.6092 25.8145 60.1638 25.8145 55.6744" stroke="white" stroke-width="2" stroke-linecap="round"/>
<circle cx="30.4656" cy="38.6978" r="4.65116" fill="white"/>
<circle cx="89.5379" cy="38.698" r="4.65116" fill="white"/>
<defs>
<filter id="filter0_d_41_661" x="0" y="2.38419e-07" width="120" height="120" filterUnits="userSpaceOnUse" color-interpolation-filters="sRGB">
<feFlood flood-opacity="0" result="BackgroundImageFix"/>
<feColorMatrix in="SourceAlpha" type="matrix" values="0 0 0 0 0 0 0 0 0 0 0 0 0 0 0 0 0 0 127 0" result="hardAlpha"/>
<feOffset dy="2"/>
<feGaussianBlur stdDeviation="5"/>
<feComposite in2="hardAlpha" operator="out"/>
<feColorMatrix type="matrix" values="0 0 0 0 0.227451 0 0 0 0 0.615686 0 0 0 0 0.831373 0 0 0 1 0"/>
<feBlend mode="normal" in2="BackgroundImageFix" result="effect1_dropShadow_41_661"/>
<feBlend mode="normal" in="SourceGraphic" in2="effect1_dropShadow_41_661" result="shape"/>
</filter>
<linearGradient id="paint0_linear_41_661" x1="105.882" y1="50.4247" x2="1.35597" y2="17.3418" gradientUnits="userSpaceOnUse">
<stop stop-color="#0080C8"/>
<stop offset="1" stop-color="#0080C8" stop-opacity="0.36"/>
</linearGradient>
</defs>
</svg>
