<svg width="33" height="32" viewBox="0 0 33 32" fill="none" xmlns="http://www.w3.org/2000/svg">
<path d="M28.5 8H22.5V7C22.5 6.20435 22.1839 5.44129 21.6213 4.87868C21.0587 4.31607 20.2956 4 19.5 4H13.5C12.7044 4 11.9413 4.31607 11.3787 4.87868C10.8161 5.44129 10.5 6.20435 10.5 7V8H4.5C3.96957 8 3.46086 8.21071 3.08579 8.58579C2.71071 8.96086 2.5 9.46957 2.5 10V24C2.5 24.5304 2.71071 25.0391 3.08579 25.4142C3.46086 25.7893 3.96957 26 4.5 26H28.5C29.0304 26 29.5391 25.7893 29.9142 25.4142C30.2893 25.0391 30.5 24.5304 30.5 24V10C30.5 9.46957 30.2893 8.96086 29.9142 8.58579C29.5391 8.21071 29.0304 8 28.5 8ZM12.5 7C12.5 6.73478 12.6054 6.48043 12.7929 6.29289C12.9804 6.10536 13.2348 6 13.5 6H19.5C19.7652 6 20.0196 6.10536 20.2071 6.29289C20.3946 6.48043 20.5 6.73478 20.5 7V8H12.5V7ZM28.5 10V14H24.5V13C24.5 12.7348 24.3946 12.4804 24.2071 12.2929C24.0196 12.1054 23.7652 12 23.5 12C23.2348 12 22.9804 12.1054 22.7929 12.2929C22.6054 12.4804 22.5 12.7348 22.5 13V14H10.5V13C10.5 12.7348 10.3946 12.4804 10.2071 12.2929C10.0196 12.1054 9.76522 12 9.5 12C9.23478 12 8.98043 12.1054 8.79289 12.2929C8.60536 12.4804 8.5 12.7348 8.5 13V14H4.5V10H28.5ZM28.5 24H4.5V16H8.5V17C8.5 17.2652 8.60536 17.5196 8.79289 17.7071C8.98043 17.8946 9.23478 18 9.5 18C9.76522 18 10.0196 17.8946 10.2071 17.7071C10.3946 17.5196 10.5 17.2652 10.5 17V16H22.5V17C22.5 17.2652 22.6054 17.5196 22.7929 17.7071C22.9804 17.8946 23.2348 18 23.5 18C23.7652 18 24.0196 17.8946 24.2071 17.7071C24.3946 17.5196 24.5 17.2652 24.5 17V16H28.5V24Z" fill="#0080C8"/>
</svg>
