<svg width="25" height="24" viewBox="0 0 25 24" fill="none" xmlns="http://www.w3.org/2000/svg">
<path d="M21.5 13.5001V19.5001C21.5 19.699 21.421 19.8898 21.2803 20.0304C21.1397 20.1711 20.9489 20.2501 20.75 20.2501H4.25C4.05109 20.2501 3.86032 20.1711 3.71967 20.0304C3.57902 19.8898 3.5 19.699 3.5 19.5001V13.5001C3.5 13.3012 3.57902 13.1104 3.71967 12.9698C3.86032 12.8291 4.05109 12.7501 4.25 12.7501C4.44891 12.7501 4.63968 12.8291 4.78033 12.9698C4.92098 13.1104 5 13.3012 5 13.5001V18.7501H20V13.5001C20 13.3012 20.079 13.1104 20.2197 12.9698C20.3603 12.8291 20.5511 12.7501 20.75 12.7501C20.9489 12.7501 21.1397 12.8291 21.2803 12.9698C21.421 13.1104 21.5 13.3012 21.5 13.5001ZM9.28063 7.28073L11.75 4.81041V13.5001C11.75 13.699 11.829 13.8898 11.9697 14.0304C12.1103 14.1711 12.3011 14.2501 12.5 14.2501C12.6989 14.2501 12.8897 14.1711 13.0303 14.0304C13.171 13.8898 13.25 13.699 13.25 13.5001V4.81041L15.7194 7.28073C15.8601 7.42146 16.051 7.50052 16.25 7.50052C16.449 7.50052 16.6399 7.42146 16.7806 7.28073C16.9214 7.14 17.0004 6.94912 17.0004 6.7501C17.0004 6.55108 16.9214 6.36021 16.7806 6.21948L13.0306 2.46948C12.961 2.39974 12.8783 2.34442 12.7872 2.30668C12.6962 2.26894 12.5986 2.24951 12.5 2.24951C12.4014 2.24951 12.3038 2.26894 12.2128 2.30668C12.1217 2.34442 12.039 2.39974 11.9694 2.46948L8.21937 6.21948C8.07864 6.36021 7.99958 6.55108 7.99958 6.7501C7.99958 6.94912 8.07864 7.14 8.21937 7.28073C8.36011 7.42146 8.55098 7.50052 8.75 7.50052C8.94902 7.50052 9.13989 7.42146 9.28063 7.28073Z" fill="#878992"/>
</svg>
