<svg width="37" height="36" viewBox="0 0 37 36" fill="none" xmlns="http://www.w3.org/2000/svg">
<mask id="mask0_35_175" style="mask-type:luminance" maskUnits="userSpaceOnUse" x="0" y="0" width="37" height="36">
<path d="M36.398 0H0.449219V36H36.398V0Z" fill="white"/>
</mask>
<g mask="url(#mask0_35_175)">
<path d="M0.449219 17.28C0.449219 9.13414 0.449219 5.0612 2.97622 2.5306C5.50322 0 9.57036 0 17.7046 0H19.1426C27.2769 0 31.344 0 33.871 2.5306C36.398 5.0612 36.398 9.13414 36.398 17.28V18.72C36.398 26.8659 36.398 30.9388 33.871 33.4694C31.344 36 27.2769 36 19.1426 36H17.7046C9.57036 36 5.50322 36 2.97622 33.4694C0.449219 30.9388 0.449219 26.8659 0.449219 18.72V17.28Z" fill="#0077FF"/>
<path d="M19.577 25.9352C11.3837 25.9352 6.71036 20.3102 6.51562 10.9502H10.6198C10.7546 17.8202 13.7802 20.7302 16.1768 21.3302V10.9502H20.0414V16.8751C22.408 16.6202 24.8942 13.9202 25.733 10.9502H29.5976C28.9535 14.6102 26.2574 17.3102 24.3401 18.4202C26.2574 19.3202 29.3282 21.6752 30.4965 25.9352H26.2424C25.3287 23.0852 23.0521 20.8802 20.0414 20.5802V25.9352H19.577Z" fill="white"/>
</g>
</svg>
