<svg width="60" height="61" viewBox="0 0 60 61" fill="none" xmlns="http://www.w3.org/2000/svg">
<path d="M9.375 15.7676V45.7676C9.375 46.7621 9.77009 47.716 10.4733 48.4192C11.1766 49.1225 12.1304 49.5176 13.125 49.5176H50.625C51.1223 49.5176 51.5992 49.32 51.9508 48.9684C52.3025 48.6168 52.5 48.1399 52.5 47.6426V21.3926C52.5 20.8953 52.3025 20.4184 51.9508 20.0668C51.5992 19.7151 51.1223 19.5176 50.625 19.5176H13.125C12.1304 19.5176 11.1766 19.1225 10.4733 18.4192C9.77009 17.716 9.375 16.7621 9.375 15.7676ZM9.375 15.7676C9.375 14.773 9.77009 13.8192 10.4733 13.1159C11.1766 12.4127 12.1304 12.0176 13.125 12.0176H45" stroke="#313435" stroke-width="2" stroke-linecap="round" stroke-linejoin="round"/>
<path d="M16.4746 42.6213C16.6699 42.8165 16.6699 43.1331 16.4746 43.3284C16.2794 43.5237 15.9628 43.5237 15.7675 43.3284C15.5723 43.1331 15.5723 42.8165 15.7675 42.6213C15.9628 42.426 16.2794 42.426 16.4746 42.6213Z" stroke="#313435" stroke-width="2"/>
<path d="M29.1154 42.7096C28.738 39.4644 27.2757 36.4417 24.9655 34.1315C22.6553 31.8214 19.6327 30.3591 16.3875 29.9817" stroke="#313435" stroke-width="2" stroke-linecap="round" stroke-linejoin="round"/>
<path d="M23.1048 43.0632C22.8247 41.2885 21.9895 39.6482 20.7191 38.3778C19.4487 37.1074 17.8084 36.2722 16.0337 35.9921" stroke="#313435" stroke-width="2" stroke-linecap="round" stroke-linejoin="round"/>
<path d="M52.5 29.2676H46.5C45.3954 29.2676 44.5 30.163 44.5 31.2676V35.2676C44.5 36.3721 45.3954 37.2676 46.5 37.2676H52.5" stroke="#313435" stroke-width="2"/>
</svg>
